<svg xmlns="http://www.w3.org/2000/svg" width="33.5914" height="20" viewBox="0 0 33.5914 20"><defs><style>.a{fill:#767676;}</style></defs><title>img_icon_bug_tld-shop</title><path class="a" d="M12.0585,4a.1809.1809,0,0,0,.04.0217,1.1022,1.1022,0,0,1,.8772,1.107c.0021.6332.0005,1.2664.0005,1.8995V7.153c.2553-.0278.4994-.0694.7448-.0784a3.8271,3.8271,0,0,1,2.1827.5581A2.567,2.567,0,0,1,16.87,8.81a4.4818,4.4818,0,0,1,.3761,1.8689c.0063,1.2663.002,2.5327.0018,3.799,0,.2066-.0591.2661-.2654.2662q-.82,0-1.64,0c-.2256,0-.2794-.0531-.2794-.2759,0-1.1641.0044-2.3282-.0032-3.4923a4.8213,4.8213,0,0,0-.0708-.867A.9713.9713,0,0,0,13.9649,9.24a1.79,1.79,0,0,0-.8672.1819.1847.1847,0,0,0-.1238.195q.0052,2.4186.0025,4.8373c0,.24-.05.29-.2886.29H11.0832c-.2414,0-.2917-.05-.2917-.2878q0-1.54.0017-3.0793a.1559.1559,0,0,0-.1087-.1748,1.0675,1.0675,0,0,1-.61-1.2836,3.963,3.963,0,0,1,.6423-1.29.3848.3848,0,0,0,.0719-.2119c.0044-1.0894,0-2.1788.0046-3.2681a1.0917,1.0917,0,0,1,.6039-1.031A2.3321,2.3321,0,0,1,11.7281,4Z"/><path class="a" d="M0,13.038c.0165-.0721.0345-.144.0493-.2164a1.77,1.77,0,0,1,1.7937-1.385,1.7832,1.7832,0,0,1,1.6621,1.4339,1.7637,1.7637,0,1,1-3.4793.575A.4594.4594,0,0,0,0,13.3684Z"/><path class="a" d="M7.0516,7.0671a3.916,3.916,0,0,1,2.0913.5938,1.0064,1.0064,0,0,1,.4987,1.164.9918.9918,0,0,1-1.3529.6025,8.0406,8.0406,0,0,0-.91-.3148,1.4753,1.4753,0,0,0-.8377.0352.9089.9089,0,0,0-.3245.18.3137.3137,0,0,0,.0816.5417,1.7986,1.7986,0,0,0,.4755.123c.3923.0561.7916.0731,1.1794.1494a2.3953,2.3953,0,0,1,.3246,4.6165,3.71,3.71,0,0,1-2.824-.1276,3.7911,3.7911,0,0,1-1.3019-.9353c-.1459-.1585-.1385-.259.0281-.3916q.5629-.4479,1.1259-.8955c.1911-.152.2433-.1474.4207.0157a1.8772,1.8772,0,0,0,1.695.4962.8668.8668,0,0,0,.2412-.09A.3578.3578,0,0,0,7.88,12.482a.35.35,0,0,0-.2609-.3423,3.1211,3.1211,0,0,0-.5432-.0924,5.2674,5.2674,0,0,1-1.41-.2493,2.2668,2.2668,0,0,1-1.55-1.91,2.2931,2.2931,0,0,1,1.097-2.3271A3.2014,3.2014,0,0,1,7.0516,7.0671Z"/><path class="a" d="M33.5915,10.413a3.95,3.95,0,0,0-4.9733-3.2,2.41,2.41,0,0,0-1.8473,1.8334,4.98,4.98,0,0,0-.0887,1.231c0,.1843,0,.3686,0,.553-.0286.01-.0467.016-.065.0217a1.0175,1.0175,0,0,0-.7053,1.325,4.0329,4.0329,0,0,0,.6931,1.3163.3705.3705,0,0,1,.074.21c.0047,1.0144.003,2.0288.0034,3.0432,0,.2006.0526.2533.2484.2533h1.6749c.2007,0,.2548-.0547.2549-.26q.0006-.8493,0-1.6985V14.895c.0506.0045.0858.0046.12.011a3.8849,3.8849,0,0,0,1.4409-.0039A3.9406,3.9406,0,0,0,33.5915,10.413Zm-4.02,2.3658a3.324,3.324,0,0,1-.6025-.1433c-.084-.0211-.1115-.0736-.11-.1634.0056-.381.0024-.7622.0024-1.1432,0-.3693-.0111-.7391.0048-1.1077a1.5437,1.5437,0,0,1,.108-.5127.76.76,0,0,1,.7977-.4606A1.7888,1.7888,0,0,1,31.41,10.61,1.7643,1.7643,0,0,1,29.5712,12.7788Z"/><path class="a" d="M21.7808,7.0671a3.9522,3.9522,0,1,0,3.9478,3.9544A3.9545,3.9545,0,0,0,21.7808,7.0671Zm-.0043,5.7185A1.77,1.77,0,1,1,23.55,11.0205,1.7659,1.7659,0,0,1,21.7765,12.7856Z"/></svg>